<?xml version="1.0" encoding="utf-8"?>
<!-- Generator: Adobe Illustrator 23.0.3, SVG Export Plug-In . SVG Version: 6.00 Build 0)  -->
<svg version="1.1" id="bg-header" xmlns="http://www.w3.org/2000/svg" xmlns:xlink="http://www.w3.org/1999/xlink" x="0px" y="0px"
	 viewBox="0 0 700 200" style="enable-background:new 0 0 700 200;" xml:space="preserve">
<style type="text/css">
	.st0{opacity:0.3;fill:url(#wave3_1_);}
	.st1{opacity:0.6;fill:url(#wave2_1_);}
	.st2{fill:url(#wave_1_);}
</style>
<linearGradient id="wave3_1_" gradientUnits="userSpaceOnUse" x1="350" y1="200" x2="350" y2="38.0794">
	<stop  offset="0" style="stop-color:#4596FB"/>
	<stop  offset="0.1561" style="stop-color:#4AB0EE"/>
	<stop  offset="0.3714" style="stop-color:#50CDDF"/>
	<stop  offset="0.5856" style="stop-color:#54E1D4"/>
	<stop  offset="0.7965" style="stop-color:#56EECE"/>
	<stop  offset="1" style="stop-color:#57F2CC"/>
</linearGradient>
<path id="wave3" class="st0" d="M0,57c42-15,122.12-35.15,200,3c174.31,85.38,209.06,29.99,315,43c57,7,124,48,185,97
	c-233.33,0-466.67-17-700-17C0,135.33,0,104.67,0,57z"/>
<linearGradient id="wave2_1_" gradientUnits="userSpaceOnUse" x1="322" y1="187" x2="322" y2="42.0794">
	<stop  offset="0" style="stop-color:#4596FB"/>
	<stop  offset="0.1561" style="stop-color:#4AB0EE"/>
	<stop  offset="0.3714" style="stop-color:#50CDDF"/>
	<stop  offset="0.5856" style="stop-color:#54E1D4"/>
	<stop  offset="0.7965" style="stop-color:#56EECE"/>
	<stop  offset="1" style="stop-color:#57F2CC"/>
</linearGradient>
<path id="wave2" class="st1" d="M-28,61c42-15,122.12-35.15,200,3c174.31,85.38,209.06,29.99,315,43c57,7,124,31,185,80
	c-233.33,0-466.67,0-700,0C-28,139.33-28,108.67-28,61z"/>
<linearGradient id="wave_1_" gradientUnits="userSpaceOnUse" x1="350" y1="200" x2="350" y2="55.0794">
	<stop  offset="0" style="stop-color:#4596FB"/>
	<stop  offset="0.1561" style="stop-color:#4AB0EE"/>
	<stop  offset="0.3714" style="stop-color:#50CDDF"/>
	<stop  offset="0.5856" style="stop-color:#54E1D4"/>
	<stop  offset="0.7965" style="stop-color:#56EECE"/>
	<stop  offset="1" style="stop-color:#57F2CC"/>
</linearGradient>
<path id="wave" class="st2" d="M0,74c42-15,122.12-35.15,200,3c174.31,85.38,209.06,29.99,315,43c57,7,124,31,185,80
	c-233.33,0-466.67,0-700,0C0,152.33,0,121.67,0,74z"/>
</svg>
