<?xml version="1.0" encoding="utf-8"?>
<!-- Generator: Adobe Illustrator 23.0.3, SVG Export Plug-In . SVG Version: 6.00 Build 0)  -->
<svg version="1.1" id="b976bd8f-b438-4ec7-9dbf-0fc03a613a4f"
	 xmlns="http://www.w3.org/2000/svg" xmlns:xlink="http://www.w3.org/1999/xlink" x="0px" y="0px" viewBox="0 0 972 593.6"
	 style="enable-background:new 0 0 972 593.6;" xml:space="preserve">
<style type="text/css">
	.st0{fill:#FFFFFF;}
	.st1{fill:#F2F2F2;}
	.st2{fill:#57F2CC;}
	.st3{fill:#3F3D56;}
	.st4{fill:#2F2E41;}
	.st5{opacity:0.1;enable-background:new    ;}
	.st6{fill:#FFB9B9;}
	.st7{fill:#575A89;}
	.st8{fill:#464353;}
</style>
<title>phone_call</title>
<path class="st0" d="M367.6,373c-0.4-0.4-10-10.1-18.1-33.1c-7.4-21.1-14.9-57.9-8.5-113.3c12.3-105-50.7-171.9-51.4-172.6l1.9-1.8
	c0.2,0.2,16.4,17.2,30.8,47.1c19.1,39.6,26.5,83.9,21.3,127.6c-12.3,104.8,25.4,143.8,25.8,144.2L367.6,373z"/>
<circle class="st0" cx="270.3" cy="35.5" r="16.8"/>
<circle class="st0" cx="336.5" cy="83.2" r="16.8"/>
<circle class="st0" cx="311.2" cy="131.9" r="16.8"/>
<circle class="st0" cx="362.1" cy="155.4" r="16.8"/>
<circle class="st1" cx="319.8" cy="221.6" r="16.8"/>
<path class="st1" d="M377.6,371.2c0,0-26.1-36.2,15.5-78.3L377.6,371.2z"/>
<path class="st1" d="M357.3,375.4c0,0-17.9-40.9-75.3-26.5L357.3,375.4z"/>
<path class="st0" d="M684.2,504.1c-0.1-0.8-1.6-21.2,11.5-55.2c12-31.2,39.1-80.4,100.3-137.3C911.9,203.8,905,66.4,904.9,65.1
	l3.9-0.2c0,0.3,2,35.5-10.6,83.5c-16.7,63.7-51.3,121.3-99.5,166C682.9,421.9,688,502.9,688.1,503.7L684.2,504.1z"/>
<circle class="st0" cx="900.9" cy="25.2" r="25.1"/>
<circle class="st0" cx="930" cy="143.7" r="25.1"/>
<circle class="st0" cx="853.9" cy="174.7" r="25.1"/>
<circle class="st0" cx="889.1" cy="250.9" r="25.1"/>
<circle class="st0" cx="776.6" cy="285.2" r="25.1"/>
<path class="st1" d="M697.4,511.7c0,0,5.3-66.6,93.6-74.2L697.4,511.7z"/>
<path class="st1" d="M670.3,496.8c0,0,19.3-63.9-60-103.2L670.3,496.8z"/>
<path class="st2" d="M121.4,440.4c-8.4,31-37.1,50.2-37.1,50.2s-15.1-31-6.7-62s37.1-50.2,37.1-50.2S129.8,409.4,121.4,440.4z"/>
<path class="st2" d="M45.2,440.4c8.4,31,37.1,50.2,37.1,50.2s15.1-31,6.7-62s-37.1-50.2-37.1-50.2S36.8,409.4,45.2,440.4z"/>
<path class="st3" d="M57.5,433.7c23,22.4,25.8,56.8,25.8,56.8s-34.5-1.9-57.5-24.3S0,409.4,0,409.4S34.5,411.3,57.5,433.7z"/>
<path class="st3" d="M109.1,433.7c-23,22.4-25.8,56.8-25.8,56.8s34.5-1.9,57.5-24.3s25.8-56.8,25.8-56.8S132.1,411.3,109.1,433.7z"
	/>
<rect x="8.5" y="557.1" class="st4" width="963.5" height="2.2"/>
<path class="st3" d="M517.1,213c0,0-10-10-33-8c0,0-222-23-227,18c-5,41-6,65,7,74c0,0,42.5,38.5,20.5,72.5l-12,20l471-4
	c0,0,5-73,20-87s20-88,0-90S511.6,195.5,517.1,213z"/>
<path class="st3" d="M268.6,294.5c0,0-141,33-85,95l9,9l-4,138h650l7-135l8-16c0,0,49.8-59.8-94.1-81.4l-25.9,65.4l-438-3
	C295.6,366.5,292.6,292.5,268.6,294.5z"/>
<rect x="200.6" y="527.5" class="st3" width="41" height="31"/>
<rect x="790.6" y="527.5" class="st3" width="41" height="31"/>
<path class="st3" d="M509.4,370c0,0-97.9-69.5-219.9,0.5l-36,52l7,43c0,0,253,4,256-23S509.4,370,509.4,370z"/>
<path class="st3" d="M738.6,370.5c0,0-171.8-55-223.4,0l6.4,79c0,0,251,19,255,6s6-36,6-36L738.6,370.5z"/>
<path class="st5" d="M738.6,370.5c0,0-171.8-55-223.4,0l0.1,1.8c-0.2-0.8-0.3-1.3-0.3-1.3s-103.5-70.5-225.5-0.5l-36,52l7,43
	c0,0,245,5.2,260.7-19.4l0.3,3.4c0,0,251,19,255,6s6-36,6-36L738.6,370.5z"/>
<path class="st2" d="M272.6,232.5c48.6-1,94.7-7.2,137-21c1,48.7,8,94.2,24,135c-47.3-8.6-95.3-0.1-144,24
	C298.3,326.5,290.7,280.2,272.6,232.5z"/>
<path class="st2" d="M769.6,240.5c-48.6-1-94.7-7.2-137-21c-1,48.7-8,94.2-24,135c47.3-8.6,95.3-0.1,144,24
	C743.8,334.5,751.4,288.2,769.6,240.5z"/>
<path class="st4" d="M457.4,227.7c2.8-2,6-3.6,9.3-4.6c21-7.8,42.9-12.6,65.3-14.2c19.4-1.4,40.4,0.3,55.6,12.5
	c2.4,1.7,4.3,4,5.6,6.6c1.9,4.1,1.3,8.9,0.7,13.4c-0.1,1.7-0.6,3.4-1.3,5c-2,3.9-7.1,5.2-11.4,4.8s-8.5-2.3-12.8-3.2
	c-2.7-0.5-5.4-0.7-8.1-0.8l-27-1.5c-16.8-0.9-33.8-1.8-50.2,1.6c-5.1,0.9-10,2.6-14.5,5c-3.8,2.1-6.3,5.1-9.8,1.2
	C452.7,246.6,449.3,234.1,457.4,227.7z"/>
<path class="st1" d="M499.2,239.7c0,0,36.3-16.3,50.1,2.5s-7.5,11.3-7.5,11.3l-23.8,7.5l-26.3-5L499.2,239.7z"/>
<path class="st6" d="M501.1,227.8c0,0,5,23.8,1.3,30s21.3,15,21.3,15l23.8-10c0,0-6.3-38.8,0-46.3L501.1,227.8z"/>
<path class="st5" d="M501.1,227.8c0,0,5,23.8,1.3,30s21.3,15,21.3,15l23.8-10c0,0-6.3-38.8,0-46.3L501.1,227.8z"/>
<path class="st7" d="M477.7,513.7c3.6,6.9,5.9,14.3,8.3,21.7c0.1,1,1,1.6,2,1.5c0.1,0,0.1,0,0.2,0l22.3,0c2.7,0,6.4-0.9,6.4-3.6
	c0-1.9-2-3.1-3.5-4.4c-4.1-3.5-5.1-9.2-6.8-14.3c-3.3-9.8-9.6-18.3-18-24.2c-1.1-0.9-2.5-1.5-3.9-1.9c-1.4-0.2-2.8-0.1-4.2,0.2
	c-3.9,0.8-18.5,3.5-15.7,9.2c1.2,2.4,5.6,5,7.4,7.3C474.2,507.7,476.1,510.6,477.7,513.7z"/>
<path class="st7" d="M555.1,487.9c-0.8,1.6-1.7,3.3-2.6,4.8c-3.2,5.3-7,10.3-10,15.7c-1.9,3.4-3.5,7.1-3.7,10.9s1.2,8,4.2,10.3
	c3.2,2.5,7.7,2.6,11.7,2s8-1.7,12.1-1.4c-1.4-7.7,5.1-14.5,6.8-22.2c0.5-2.2,0.5-4.4,1.1-6.5c0.7-1.9,1.5-3.8,2.5-5.6
	c3.2-6.3,5.5-13.1,6.8-20.1c0.2-0.8-19.8-1-21.7-0.6C556.5,476.7,557.3,483,555.1,487.9z"/>
<path class="st4" d="M401.4,366.6c-5.7,8.9-4.4,20.7-0.4,30.5s10.4,18.4,14.7,28.1c2.8,6.1,4.7,12.7,7.9,18.6
	c3.9,7.4,9.5,13.9,12.1,21.8c1.7,5.1,2,10.6,4.7,15.2c1.6,2.5,3.5,4.8,5.5,6.9c5.8,6.6,10.1,14.4,12.7,22.8
	c2.5-7.3,9.8-12.1,17.3-13.7s15.4-0.5,23,0.6c-4.3-6.6-8.6-13.3-11.1-20.7c-2.5-7.2-3.2-14.8-4.8-22.2c-3.4-15.2-10.6-29.2-17.8-43
	l36.8-2.9c6-0.6,12.1-0.8,18.1-0.7c9.5,0.4,18.8,2.8,28.3,3.9s19.5,0.8,27.9-3.6c-16.1,23.1-24.5,50.8-24,78.9
	c13.3-10.3,32.5-7.9,42.9,5.4c1.3,1.7,2.5,3.5,3.4,5.5c14.4-19.7,12.7-47.2,24.2-68.8c2.4-4.4,5.2-8.6,7.8-12.9
	c5-8.6,8.7-17.9,12.3-27.1c3.2-8.2,6.4-17.3,3.4-25.5c-1.3-3.1-3.1-6-5.5-8.4c-6.6-7.3-15.8-12.7-25.6-12.9
	c-15.1-0.3-27.5,10.8-40.8,18.1c-15.6,8.5-33.8,11.9-51.5,10.7c-18.2-1.3-35.5-7.2-52.8-12.5c-8.7-2.7-17.5-5-26.4-6.8
	c-7.4-1.4-14.5,0.1-21.8,2C414,355.8,406,359.5,401.4,366.6z"/>
<path class="st6" d="M558.7,204c0,20.7-16.8,37.5-37.5,37.5c-2.2,0-4.5-0.2-6.7-0.6c-20.4-3.7-34-23.2-30.3-43.6s23.2-34,43.6-30.3
	C545.7,170.3,558.7,185.8,558.7,204z"/>
<path class="st1" d="M499.2,239.7c0,0,6.9,3.1,9.4,5.6s10,16.3,22.5,7.5s13.8-13.8,17.5-13.8s8.8,7.5,8.8,7.5l34.4,103.3
	c-9.3,10.5-20,19.5-31.9,26.9c-20,12.5-43.8,18.8-55.1,13.8s-32.5-8.8-36.3-18.8s-10-40-10-40l17.5-76.3L499.2,239.7z"/>
<path class="st4" d="M494.4,344.1c2.7-5.9,3.1-12.6,3.4-19.1c0.4-6.4,0.2-12.9-0.5-19.3c-1.1-8.4-3.8-16.4-5.6-24.7
	c-1.5-7.3-2.2-14.6-2.2-22c0-3.4,0.3-6.9,2.1-9.8c1.3-2,3.3-3.5,4.1-5.7c1.6-4.3-2.3-8.9-6.6-10.7c-5.1-2.1-10.9-2-16.2-0.7
	s-10.3,3.8-15.2,6.2c-3.6,1.8-7.2,3.6-10,6.4c-3.9,4-5.6,9.6-7,15c-1.1,4.3-2.1,8.9-1.2,13.3c1.4,7.1,7.2,12.5,10.3,19.1
	c3.6,7.6,3.4,16.5,1.9,24.8s-4,16.4-4.8,24.8s0.4,17.4,5.7,24c2.1,2.7,8,9.1,11.9,8.3c3.1-0.6,7.6-7.4,10-9.5
	C481.8,358.5,490.3,353,494.4,344.1z"/>
<path class="st4" d="M560,235.6c0.1,7-3,13.6-6.6,19.6s-7.9,11.6-10.5,18.1c-3.3,8.1-4,17-1.9,25.5c0.8,2.9,1.7,5.7,2.8,8.5
	l6.9,18.8c0.9,3,2.3,5.8,4,8.3c1.6,2,3.4,3.7,5.4,5.2c5.2,4.2,11.2,7.3,17.6,9.2c6.5,1.7,13.5,1.6,19.6-1.1
	c0.7-25.5,4.8-50.8,12.2-75.2c1.4-4.5,2.9-9.2,1.8-13.8c-1.2-5.1-5.3-9-9.2-12.5c-12-10.8-25.2-22.1-41.3-23.6
	C551.4,221.7,559.9,230.5,560,235.6z"/>
<path class="st6" d="M477.8,381.1c1,1.9,1.5,3.9,2.5,5.8c1.4,2.5,3.1,4.8,5.1,6.9c8.4,9.3,18.6,18.5,31.1,19.1
	c1.2,0.1,2.5,0,3.7-0.5c2.2-0.9,3.5-3.2,3.9-5.6c0.9-4.8-1.3-9.7-3.4-14.1c-4.6-9.6-9.9-19.5-18.6-25.7c-8.6-6.1-20.1-7.6-30-4.5
	c-4.5,1.4-12,3.8-6,8C470.6,373.5,475.2,375.9,477.8,381.1z"/>
<path class="st4" d="M485.4,532.5c-3.7,5.1-3,12.3-6.3,17.7c-2.9,4.6-8.3,7.1-11.8,11.2c-1.1,1.4-2.2,2.8-3,4.4
	c-3.3,5.6-6,12.7-2.8,18.3c2.6,4.5,8.2,6.3,13.2,7.5c6.4,1.5,13.1,2.7,19.6,1.6s12.8-5.1,15.1-11.3c0.5-1.6,1-3.1,1.6-4.6
	c3.5-6.9,14.6-7,18.2-13.9c2.5-4.8,0.2-10.6-2.1-15.6l-7.1-15c-2.3-5-11.9-2.1-16.8-3.3C496.7,527.9,490,526.2,485.4,532.5z"/>
<path class="st4" d="M540.1,519.6c-3,2.1-4.9,5.4-6.4,8.8c-3.5,8.1-4.7,16.9-5.9,25.6c-0.5,3.5-0.9,7.1-0.2,10.5
	c1.5,7.1,8,12.4,14.9,14.5s14.4,1.8,21.7,1.5c2.3-0.1,4.8-0.3,6.8-1.4c3.7-2,5.1-6.8,4.5-10.9s-2.9-7.8-5.1-11.3s-4.5-7.2-5.1-11.3
	c-1.1-6.9,1.9-17.1-2.3-23.4C558.7,516,545.8,515.6,540.1,519.6z"/>
<path class="st4" d="M557.7,184.4c-0.7-2.2-2.1-4.2-4.1-5.4c0.1-2.4-0.2-4.8-0.9-7.1c-2.3-6.7-7.7-6.3-12.7-9.3
	c-2.2-1.3-2.1-2.4-3.2-4.5c-1.5-2.8-3.8-5.1-6.5-6.6c-3.3-2.1-6.7-4.2-10.6-4.5c-8.1-0.6-14.3,7.1-22.1,9.5
	c-3.4,1.1-7.1,1.1-10.5,2.1s-6.9,3.5-7.4,7c-0.2,1.6,0.2,3.3-0.1,5c-0.5,3.3-3.3,5.5-5.2,8.2c-4.2,5.9-3.7,14.3-0.4,20.7
	c0.7,1.3,1.5,2.6,2.4,3.8c0.3,3,1.2,6,2.6,8.7c3.4,6.4,9.2,11.2,15.3,15.2c-0.5-2.1-0.8-4.3-0.9-6.5c-0.1-0.7,0-1.5,0.3-2.2
	c0.7-1.4,2.5-1.8,3.8-2.6c2.8-1.6,3.9-5.2,4-8.4s-0.6-6.5-0.3-9.7c0-1.5,0.7-2.9,1.8-3.9c1-0.6,2.2-0.9,3.4-0.8
	c5.8-0.2,11.8-0.3,16.9-3.1c1.7-0.9,3.4-2.2,5.3-2.7c4.3-1.1,8.8,1.9,11.3,5.6s3.7,8.1,6,12s6.3,7.3,10.7,6.8c0.5,0,1-0.2,1.3-0.6
	c0.2-0.3,0.3-0.7,0.2-1.1l0.2-17C558.8,190.2,558.5,187.2,557.7,184.4z"/>
<path class="st4" d="M438.9,273.5c-3.6,5.3-7.7,10.4-9.7,16.4c-1.2,3.6-1.5,7.3-2.4,11c-2.8,12.2-10.9,23-11.7,35.5
	c-0.3,2.8,0.1,5.6,1.2,8.1c2.3,5,7.8,7.7,13.1,9.4s11,2.9,15.2,6.5c2.1,2,4,4.3,5.7,6.7c6.9,8.6,16.1,14.9,26.6,18.2
	c-0.8-5.7-1.2-12.6,3.3-16.1c2.5-1.9,5.8-2.2,8.9-2.5l14.7-1.3c-9.8-9.5-20.6-17.9-32.1-25c-4.1-2.5-8.5-5.1-10.3-9.5
	c-1.2-2.7-1.1-5.8-1.2-8.8c-0.1-10.9-1-21.8-2.8-32.6c-1.2-7.5-2.8-14.9-4.6-22.2c-0.5-2.1-3.5-11.3-7.3-9.2
	c-0.9,0.5-1.7,6.4-2.2,7.6C442.1,268.4,440.7,271,438.9,273.5z"/>
<path class="st5" d="M459.2,289.5c0.2,8.8-1.7,17.6-5.5,25.6c-1,1.8-1.7,3.7-2.1,5.6c-0.7,4.2,1.7,8.3,4.5,11.5
	c5.4,6.4,12.4,11.3,20.3,14.1"/>
<path class="st4" d="M552.6,244.7l0.9,0.1c-1.6-0.3-2.7-1.8-2.5-3.4l9.1-57.7c0.3-1.6,1.8-2.7,3.4-2.5l0,0l-0.9-0.1
	c2.6,0.4,4.3,2.8,3.9,5.4l-8.6,54.2C557.7,243.3,555.2,245.1,552.6,244.7L552.6,244.7z"/>
<path class="st2" d="M562.4,181.1l1.3,0.2l0,0l-10.1,63.5l0,0l-1.3-0.2c-1-0.2-1.6-1-1.4-2l9.5-60.1
	C560.5,181.6,561.4,181,562.4,181.1z"/>
<path class="st8" d="M562.3,189.5l0.3,0c0.1,0,0.2,0.1,0.1,0.2l-0.8,4.8c0,0.1-0.1,0.2-0.2,0.1l-0.3,0c-0.1,0-0.2-0.1-0.1-0.2
	l0.8-4.8C562.1,189.5,562.2,189.5,562.3,189.5z"/>
<path class="st6" d="M585.3,233.6c1.4-3.5,2.8-7.1,2.7-10.8c-0.2-3.4-1.3-6.7-3-9.6c-2.1-3.9-4.7-7.5-7.8-10.7
	c-3.7-3.8-9-7.2-14-5.5c-4,1.4-6.2,5.5-7.7,9.5c-0.9,1.9-1.2,4.1-1,6.2c0.5,2.7,2.6,4.8,4.1,7.1c2.4,3.6,3.4,7.9,4.4,12.1l2.5,10.6
	l4.2,18.1c-0.1-0.5,7.8-8,8.8-9.6C581.4,245.7,583.1,239.2,585.3,233.6z"/>
<path class="st4" d="M607.8,253.5l6,12.5c2.9,5.1,4.2,11,3.8,16.8l0.4,37.4c0,5,0.1,10.1-1.2,14.9c-0.4,1.6-1.1,3.1-2.1,4.4
	c-1,1.1-2.2,2.1-3.5,2.9c-11.3,7.1-26,11.1-38,5.2c-2.7-1.5-5.3-3.2-7.8-5.1c-4.8-3.5-9.6-7.1-13.2-11.9c-3.7-5,13.4-23.9,10.9-29.5
	c-4.5-10.2-2-34.3-9-43c-1-1.3,8.2-0.1,8.2-1.7c-0.1-3.3,7.8-8,10.8-9.3c5.2-2.1,11.1-6.5,12-12c11,14.4-19.9,58-2.5,63.3
	c0.8,0.5,1.9,0.3,2.5-0.5c0.2-0.3,0.3-0.6,0.3-1c1-4.1,1.3-8.4,2.1-12.6c1.3-7.6,3.9-15,7.5-21.7
	C596.9,258.7,603.6,244.7,607.8,253.5z"/>
<path class="st5" d="M589.3,282.1c-0.9,2.4-0.1,5,0.6,7.4c2,7.1,2.9,14.4,2.7,21.7c0.1,0.4-0.2,0.8-0.6,0.9c-0.1,0-0.2,0-0.3,0
	c-2.9,0.2-6.2,0.2-8.2-1.9"/>
<path class="st3" d="M125.1,557h-83l-14.4-49.2c-3.1-10.7,3-21.8,13.6-25c1.8-0.5,3.7-0.8,5.7-0.8h72.6c11.1,0,20.1,9,20.1,20.1
	c0,1.8-0.3,3.7-0.7,5.4L125.1,557z"/>
<path class="st3" d="M167.1,187.2c-7.2,0-13-5.8-13-13s5.8-13,13-13s13,5.8,13,13C180,181.4,174.2,187.2,167.1,187.2z M167.1,163.2
	c-6.1,0-11,4.9-11,11s4.9,11,11,11s11-4.9,11-11C178,168.1,173.1,163.2,167.1,163.2z"/>
<path class="st3" d="M641.1,128.2c-7.2,0-13-5.8-13-13s5.8-13,13-13s13,5.8,13,13C654,122.4,648.2,128.2,641.1,128.2z M641.1,104.2
	c-6.1,0-11,4.9-11,11s4.9,11,11,11s11-4.9,11-11C652,109.1,647.1,104.2,641.1,104.2z"/>
<path class="st3" d="M428.1,34h-26V8h26V34z M404.1,32h22V10h-22V32z"/>
</svg>
