<?xml version="1.0" encoding="utf-8"?>
<!-- Generator: Adobe Illustrator 25.2.1, SVG Export Plug-In . SVG Version: 6.00 Build 0)  -->
<svg version="1.1" id="art" xmlns="http://www.w3.org/2000/svg" xmlns:xlink="http://www.w3.org/1999/xlink" x="0px" y="0px"
	 viewBox="0 0 512 512" style="enable-background:new 0 0 512 512;" xml:space="preserve">
<style type="text/css">
	.st0{fill:#37474F;}
</style>
<g id="sibil_2_">
	<path id="rast" class="st0" d="M256,393.67c0-11,0-2,0-10c0-6,0.75-9.81,6-11c22-5,61-2,73,8c13.06,10.88,3,47,3,47
		s0.88-20.39-14-27c-9-4-44,1-58.82,1.11C258,401.83,256,399.67,256,393.67z"/>
	<path id="chap" class="st0" d="M256,393.67c0-11,0-2,0-10c0-6-0.75-9.81-6-11c-22-5-61-2-73,8c-13.06,10.88-3,47-3,47
		s-0.88-20.39,14-27c9-4,44,1,58.82,1.11C254,401.83,256,399.67,256,393.67z"/>
</g>
<path id="zire_lab" class="st0" d="M221.18,446.52c0,0,18.91,3.44,35.25,3.44c18.05,0,34.39-4.3,34.39-4.3c0,19-35,38-35,38
	S220.82,464.67,221.18,446.52z"/>
<g id="abrou">
	<path id="rast_1_" class="st0" d="M233.92,257.17c-3.5-2.5-27.5-6.5-52-7c-11.51-0.23-22.83,2.39-29,8c-9.7,8.83-10,21-10,21
		s5.2-8.51,18-14c10.5-4.5,26.47-3.11,37.5-2.5c18,1,28.11,3.22,34.5,4.5C235.42,267.67,235.74,258.46,233.92,257.17z"/>
	<path id="chap_1_" class="st0" d="M278.08,257.17c3.5-2.5,27.5-6.5,52-7c11.51-0.23,22.83,2.39,29,8c9.7,8.83,10,21,10,21
		s-5.2-8.51-18-14c-10.5-4.5-26.47-3.11-37.5-2.5c-18,1-28.11,3.22-34.5,4.5C276.58,267.67,276.26,258.46,278.08,257.17z"/>
</g>
<path id="mou" class="st0" d="M378.13,95.89c-0.9-1.35-2.51-1.8-3.9-1.39c0.5-1.55,0.43-3.25-0.28-4.76
	c-16.03-34.16-61.48-64.94-105.99-61.07l19,20c-20-16-33-24-69-18l18,17c-18-11-36-16-61-4l19,14c-8-4-25-9-25-9
	c-20.71,15.34-30.53,33.89-33.27,42.2c-0.38,1.15-0.35,2.38,0.03,3.5c-1.05-0.12-2.16,0.3-2.84,1.28
	c-16.79,24.34-30.26,89.03-28.83,137.01c0.78,26.37,10.74,69.61,11.89,74.53c-0.44-6.31,5.69-74.85,27.23-87.25
	c1.72-0.99,2.84-2.76,2.82-4.75c-0.11-11.75,7.94-51.68,20.13-69.74c1.25-1.85,3.41-2.88,5.64-2.72c22.49,1.63,70.1,7.93,86.19,7.93
	c21.72,0,60.64-7.02,80.94-8.69c2.45-0.2,4.83,0.92,6.15,2.99c12.06,18.74,21.01,58.3,20.97,70.09c-0.01,2.01,1.05,3.89,2.8,4.89
	c21.56,12.37,27.69,80.95,27.25,87.26c1.15-4.92,11.11-48.17,11.89-74.53C409.37,185.15,394.85,120.82,378.13,95.89z"/>
</svg>
