<?xml version="1.0" encoding="utf-8"?>
<!-- Generator: Adobe Illustrator 23.0.0, SVG Export Plug-In . SVG Version: 6.00 Build 0)  -->
<svg version="1.1" xmlns="http://www.w3.org/2000/svg" xmlns:xlink="http://www.w3.org/1999/xlink" x="0px" y="0px"
	 viewBox="0 0 797.5 834.5" style="enable-background:new 0 0 797.5 834.5;" xml:space="preserve">
<style type="text/css">
	.st0{fill:#3F3D56;}
	.st1{opacity:5.000000e-02;enable-background:new    ;}
	.st2{fill:#D0CDE1;}
	.st3{opacity:0.1;enable-background:new    ;}
	.st4{fill:#2F2E41;}
	.st5{fill:#FFB8B8;}
	.st6{fill:#57F2CC;}
</style>
<g id="bac3cfc7-b61b-48ce-8441-8100e40ddaa6">
	<g>
		<ellipse class="st0" cx="308.5" cy="780" rx="308.5" ry="54.5"/>
		<circle class="st0" cx="496" cy="301.5" r="301.5"/>
		<circle class="st1" cx="496" cy="301.5" r="248.9"/>
		<circle class="st1" cx="496" cy="301.5" r="204"/>
		<circle class="st1" cx="496" cy="301.5" r="146.3"/>
		<path class="st2" d="M197.2,328.5c0,0-23.7,66.7-13.2,90.4s27.2,46.5,27.2,46.5S205.1,332.9,197.2,328.5z"/>
		<path class="st3" d="M197.2,328.5c0,0-23.7,66.7-13.2,90.4s27.2,46.5,27.2,46.5S205.1,332.9,197.2,328.5z"/>
		<path class="st4" d="M213.9,483c0,0-1.8,16.7-2.6,17.6s0.9,2.6,0,5.3s-1.8,6.1,0,7s-9.7,78.1-9.7,78.1s-28.1,36.9-16.7,94.8
			l3.5,58.8c0,0,27.2,1.8,27.2-7.9c0,0-1.8-11.4-1.8-16.7s4.4-5.3,1.8-7.9s-2.6-4.4-2.6-4.4s4.4-3.5,3.5-4.4s7.9-63.2,7.9-63.2
			s9.7-9.7,9.7-14.9V620c0,0,4.4-11.4,4.4-12.3s23.7-54.4,23.7-54.4l9.7,38.6l10.5,55.3c0,0,5.3,50,15.8,69.4
			c0,0,18.4,63.2,18.4,61.5s30.7-6.1,29.8-14S328,645.4,328,645.4l4.4-164.2L213.9,483z"/>
		<path class="st4" d="M190.1,740.2c0,0-23.7,46.5-7.9,48.3s21.9,1.8,29-5.3c3.8-3.8,11.6-9,17.9-12.9c7.6-4.6,11.8-13.2,11-22
			c-0.5-4.3-2.1-7.8-6-8.2c-10.5-0.9-22.8-10.5-22.8-10.5L190.1,740.2z"/>
		<path class="st4" d="M321,774.5c0,0-23.7,46.5-7.9,48.3c15.8,1.8,21.9,1.8,29-5.3c3.8-3.8,11.6-9,17.9-12.9
			c7.6-4.6,11.8-13.2,11-22c-0.5-4.3-2.1-7.8-6-8.2c-10.5-0.9-22.8-10.5-22.8-10.5L321,774.5z"/>
		<circle class="st5" cx="295.9" cy="215.4" r="36.9"/>
		<path class="st5" d="M272.2,227.6c0,0-26.4,48.5-28.5,48.5s47.4,15.8,47.4,15.8s13.7-46.4,15.8-50.6L272.2,227.6z"/>
		<path class="st2" d="M312.6,280.6c0,0-52.7-29-57.9-28.1s-61.5,50-60.6,70.2s7.9,53.6,7.9,53.6s2.6,93.1,7.9,93.9
			s-0.9,16.7,0.9,16.7s122.9,0,123.8-2.6S312.6,280.6,312.6,280.6z"/>
		<path class="st5" d="M342,489.1c0,0,16.7,50.9,2.6,49.2s-20.2-43.9-20.2-43.9L342,489.1z"/>
		<path class="st2" d="M297.3,277.6c0,0-32.5,7-27.2,50.9s14.9,87.8,14.9,87.8l32.5,71.1l3.5,13.2l23.7-6.1l-17.6-101.8
			c0,0-6.1-108.9-14-112.4C308.1,278.1,302.7,277.2,297.3,277.6z"/>
		<polygon class="st3" points="277.5,415 317.9,486.9 283.9,411.1 		"/>
		<path class="st4" d="M332.6,204.6l0.1-2.8l5.6,1.4c-0.1-1.8-1-3.5-2.5-4.6l6-0.3c-10.1-14.4-25.7-24-43.1-26.7
			c-12.9-1.9-27.3,0.8-36.2,10.4c-4.3,4.7-7,10.6-8.9,16.6c-3.5,11.1-4.3,24.4,3.1,33.4c7.5,9.2,20.6,11,32.4,12.1
			c4.2,0.4,8.5,0.8,12.4-0.8c0.4-4.4-0.1-8.9-1.7-13c-0.6-1.3-0.9-2.7-0.9-4.2c0.5-3.5,5.2-4.4,8.7-3.9c3.5,0.5,7.7,1.2,10.1-1.5
			c1.6-1.9,1.5-4.6,1.7-7C320,207,332.6,206,332.6,204.6z"/>
		<circle class="st6" cx="559" cy="744.5" r="43"/>
		<circle class="st6" cx="54" cy="729.5" r="43"/>
		<circle class="st6" cx="54" cy="672.5" r="31"/>
		<circle class="st6" cx="54" cy="624.5" r="22"/>
	</g>
</g>
<g id="Layer_2">
	<g>
		<path class="st6" d="M423.2,327.2h-25.3c-13.6,0-20.4-2.8-20.4-8.3c0-2.3,1.2-4.9,3.6-7.8c1.9-2.2,3.9-4.4,5.9-6.7
			c6.8-9.7,17.2-24.2,31.2-43.4c3.3-4.4,7.6-6.6,12.9-6.6c2.5,0,4.7,0.6,6.5,1.9c2.2,1.5,3.2,3.7,3.2,6.4l0.1,47.7
			c5.5,0.2,9.2,0.7,11.1,1.7c2.1,1.1,3.1,3.4,3.1,6.7c0,3.5-1.6,5.9-4.8,7.2c-2.3,0.9-5.4,1.2-9.4,1.1c0.1,6.1,0.1,12.7-0.1,19.8
			c0,2.3-0.8,4.3-2.3,5.8s-3.5,2.3-6,2.3c-6.4,0-9.5-4.2-9.2-12.7V327.2z M423.2,282c-4.1,6.5-10.4,16-19,28.5h19V282z"/>
		<path class="st6" d="M495.1,355.9c-14,0-24.2-6.1-30.5-18.2c-4.7-9-7-20.5-7-34.7c0-12.1,3.1-22.7,9.2-31.9
			c7.4-11,17.4-16.4,30.2-16.4c12.1,0,21.5,4.9,28.2,14.7c5.6,8.3,8.4,18.2,8.4,29.9c0,18.9-3.2,33-9.6,42.5
			C517.6,351.2,508,355.9,495.1,355.9z M497,271.2c-6.9,0-12.4,3.4-16.5,10.2c-3.6,5.9-5.5,12.8-5.5,20.6c0,10.3,1,18.3,2.9,23.9
			c3.1,9,8.8,13.5,17.1,13.5c6.9,0,12.1-3.2,15.6-9.5c3.5-6.3,5.2-15.8,5.2-28.5c0-10.1-1.6-17.7-4.7-22.7
			C508,273.8,503.3,271.2,497,271.2z"/>
		<path class="st6" d="M581.9,327.2h-25.3c-13.6,0-20.4-2.8-20.4-8.3c0-2.3,1.2-4.9,3.6-7.8c1.9-2.2,3.9-4.4,5.9-6.7
			c6.8-9.7,17.2-24.2,31.2-43.4c3.3-4.4,7.6-6.6,12.9-6.6c2.5,0,4.7,0.6,6.5,1.9c2.2,1.5,3.2,3.7,3.2,6.4l0.1,47.7
			c5.5,0.2,9.2,0.7,11.1,1.7c2.1,1.1,3.1,3.4,3.1,6.7c0,3.5-1.6,5.9-4.8,7.2c-2.3,0.9-5.4,1.2-9.4,1.1c0.1,6.1,0.1,12.7-0.1,19.8
			c0,2.3-0.8,4.3-2.3,5.8s-3.5,2.3-6,2.3c-6.4,0-9.5-4.2-9.2-12.7V327.2z M581.9,282c-4.1,6.5-10.4,16-19,28.5h19V282z"/>
	</g>
</g>
</svg>
