<?xml version="1.0" encoding="utf-8"?>
<!-- Generator: Adobe Illustrator 25.2.1, SVG Export Plug-In . SVG Version: 6.00 Build 0)  -->
<svg version="1.1" id="Layer_1" xmlns="http://www.w3.org/2000/svg" xmlns:xlink="http://www.w3.org/1999/xlink" x="0px" y="0px"
	 viewBox="0 0 240 240" style="enable-background:new 0 0 240 240;" xml:space="preserve">
<style type="text/css">
	.st0{fill:#470137;}
	.st1{fill:#FF61F6;}
</style>
<g id="Layer_2_1_">
	<g id="Surfaces">
		<g id="UI_UX_Surface">
			<g id="Outline_no_shadow">
				<path class="st0" d="M42.5,0h155C221,0,240,19.5,240,43.6v152.8c0,24.1-19,43.6-42.5,43.6h-155C19,240,0,220.5,0,196.4V43.6
					C0,19.5,19,0,42.5,0z"/>
			</g>
		</g>
	</g>
	<g id="Outlined_Mnemonics_Logos">
		<g id="Xd">
			<path class="st1" d="M126.2,63.1l-30,50.8l32,53.8c0.2,0.4,0.3,0.8,0.2,1.2c-0.1,0.4-0.5,0.1-1.1,0.2h-22.9
				c-1.6,0-2.7-0.1-3.4-1.1c-2.1-4.3-4.3-8.5-6.4-12.8c-2.1-4.2-4.4-8.5-6.8-12.9s-4.8-8.8-7.2-13.3h-0.2c-2.1,4.4-4.4,8.8-6.7,13.2
				c-2.3,4.4-4.6,8.8-6.8,13.1c-2.3,4.3-4.6,8.7-6.9,12.9c-0.4,1-1.2,1.1-2.3,1.1h-22c-0.4,0-0.7,0.2-0.7-0.3
				c-0.1-0.4,0-0.8,0.2-1.1l31.1-52.3L36,63c-0.3-0.4-0.4-0.8-0.2-1c0.2-0.3,0.6-0.4,1-0.4h22.7c0.5,0,1,0.1,1.4,0.2
				c0.4,0.2,0.7,0.5,1,0.9c1.9,4.4,4.1,8.8,6.4,13.2c2.4,4.4,4.7,8.7,7.2,13c2.4,4.3,4.6,8.6,6.7,13h0.2c2.1-4.5,4.3-8.9,6.5-13.2
				c2.2-4.3,4.5-8.6,6.8-12.9c2.3-4.3,4.5-8.7,6.7-12.9c0.1-0.4,0.3-0.8,0.6-1c0.4-0.2,0.8-0.3,1.3-0.2h21.1c0.5-0.1,1,0.2,1.1,0.7
				C126.6,62.5,126.4,62.9,126.2,63.1L126.2,63.1z"/>
			<path class="st1" d="M172.4,171.3c-7.4,0.1-14.8-1.4-21.5-4.6c-6.3-3-11.5-7.9-15.1-13.9c-3.7-6.3-5.5-14.1-5.5-23.4
				c-0.1-7.6,1.8-15.1,5.5-21.6c3.8-6.7,9.3-12.2,15.9-15.9c7-4,15.4-5.9,25.3-5.9c0.5,0,1.2,0,2.1,0.1c0.9,0.1,1.9,0.1,3.1,0.2
				V53.7c0-0.7,0.3-1.1,1-1.1h20.3c0.5-0.1,0.9,0.3,1,0.7c0,0.1,0,0.2,0,0.2v97.6c0,1.8,0.1,3.9,0.2,6.2c0.2,2.2,0.3,4.2,0.4,5.9
				c0,0.7-0.3,1.3-1,1.6c-5.2,2.3-10.7,3.9-16.3,4.9C182.7,170.8,177.6,171.3,172.4,171.3z M182.2,150.8v-45.1
				c-0.9-0.2-1.8-0.4-2.7-0.5c-1.1-0.1-2.2-0.2-3.3-0.2c-3.9,0-7.8,0.8-11.3,2.7c-3.4,1.7-6.3,4.3-8.5,7.6s-3.3,7.7-3.3,13
				c-0.1,3.6,0.5,7.2,1.7,10.6c1,2.8,2.5,5.2,4.5,7.3c1.9,1.8,4.2,3.3,6.8,4.1c2.7,0.9,5.5,1.3,8.3,1.3c1.5,0,2.9-0.1,4.2-0.2
				C179.9,151.4,181,151.2,182.2,150.8z"/>
		</g>
	</g>
</g>
</svg>
