<?xml version="1.0" encoding="utf-8"?>
<!-- Generator: Adobe Illustrator 25.2.1, SVG Export Plug-In . SVG Version: 6.00 Build 0)  -->
<svg version="1.1" id="Layer_1" xmlns="http://www.w3.org/2000/svg" xmlns:xlink="http://www.w3.org/1999/xlink" x="0px" y="0px"
	 viewBox="0 0 512 512" style="enable-background:new 0 0 512 512;" xml:space="preserve">
<style type="text/css">
	.st0{fill:url(#SVGID_1_);}
	.st1{fill:url(#SVGID_2_);stroke:#FFFFFF;}
</style>
<linearGradient id="SVGID_1_" gradientUnits="userSpaceOnUse" x1="51.5357" y1="-12.2642" x2="498.8492" y2="342.8135" gradientTransform="matrix(1 0 0 1 0 106)">
	<stop  offset="0" style="stop-color:#9013FE"/>
	<stop  offset="1" style="stop-color:#6610F2"/>
</linearGradient>
<path class="st0" d="M56.5,105.3C55.5,77.6,77.1,52,106.3,52h299.3c29.2,0,50.8,25.6,49.9,53.3c-0.9,26.6,0.3,61.2,9,89.3
	c8.7,28.2,23.4,46.1,47.5,48.4v26c-24.1,2.3-38.8,20.1-47.5,48.4c-8.7,28.1-9.9,62.7-9,89.3c1,27.7-20.6,53.3-49.9,53.3H106.3
	c-29.2,0-50.8-25.6-49.9-53.3c0.9-26.6-0.3-61.2-9-89.3C38.8,289.1,24.1,271.3,0,269v-26c24.1-2.3,38.8-20.1,47.5-48.4
	C56.2,166.5,57.4,132,56.5,105.3z"/>
<linearGradient id="SVGID_2_" gradientUnits="userSpaceOnUse" x1="189.1487" y1="58.3137" x2="289.1352" y2="227.4126" gradientTransform="matrix(1 0 0 1 0 106)">
	<stop  offset="0" style="stop-color:#FFFFFF"/>
	<stop  offset="1" style="stop-color:#F1E5FC"/>
</linearGradient>
<path class="st1" d="M267,364.5c47.3,0,75.8-23.2,75.8-61.4c0-28.9-20.3-49.8-50.5-53.1v-1.2c22.2-3.6,39.6-24.2,39.6-47.2
	c0-32.8-25.9-54.1-65.3-54.1H178v217H267z M212.4,175h45.9c25,0,39.1,11.1,39.1,31.3c0,21.5-16.5,33.5-46.4,33.5h-38.7
	C212.4,239.8,212.4,175,212.4,175z M212.4,336.9v-71.4h45.6c32.7,0,49.6,12,49.6,35.5s-16.5,35.9-47.6,35.9H212.4z"/>
</svg>
