<?xml version="1.0" encoding="utf-8"?>
<!-- Generator: Adobe Illustrator 25.2.1, SVG Export Plug-In . SVG Version: 6.00 Build 0)  -->
<svg version="1.1" id="Layer_1" xmlns="http://www.w3.org/2000/svg" xmlns:xlink="http://www.w3.org/1999/xlink" x="0px" y="0px"
	 viewBox="0 0 128 128" style="enable-background:new 0 0 128 128;" xml:space="preserve">
<style type="text/css">
	.st0{fill:#1572B6;}
	.st1{fill:#33A9DC;}
	.st2{fill:#FFFFFF;}
	.st3{fill:#EBEBEB;}
</style>
<path class="st0" d="M17.8,115.2L7.6,0h112.9l-10.3,115.2L63.9,128C63.9,128,17.8,115.2,17.8,115.2z"/>
<path class="st1" d="M64,118.2l37.3-10.4l8.8-98.4H64C64,9.4,64,118.2,64,118.2z"/>
<path class="st2" d="M64,51.2h18.7L84,36.7H64V22.6h35.4l-0.3,3.8l-3.5,38.9H64V51.2z"/>
<path class="st3" d="M64.1,87.9L64.1,87.9l-15.8-4.2l-1-11.3H33.1l2,22.2l28.9,8l0.1,0L64.1,87.9L64.1,87.9z"/>
<path class="st2" d="M81.5,64.7l-1.7,18.9L64,87.9v14.7l29-8l0.2-2.4l2.5-27.5L81.5,64.7L81.5,64.7z"/>
<path class="st3" d="M64.1,22.6v14.1H29.9l-0.3-3.2L29,26.4l-0.3-3.8C28.7,22.6,64.1,22.6,64.1,22.6z M64,51.2v14.1H48.5l-0.3-3.2
	l-0.6-7.2l-0.3-3.8H64z"/>
</svg>
