<?xml version="1.0" encoding="utf-8"?>
<!-- Generator: Adobe Illustrator 25.2.1, SVG Export Plug-In . SVG Version: 6.00 Build 0)  -->
<svg version="1.1" id="Layer_1" xmlns="http://www.w3.org/2000/svg" xmlns:xlink="http://www.w3.org/1999/xlink" x="0px" y="0px"
	 viewBox="0 0 512 512" style="enable-background:new 0 0 512 512;" xml:space="preserve">
<style type="text/css">
	.st0{fill:#DE4C36;}
</style>
<path class="st0" d="M502.3,233.2L278.8,9.7c-12.9-12.9-33.7-12.9-46.6,0l-46.4,46.4l58.9,58.9c13.7-4.6,29.4-1.5,40.3,9.4
	c11,11,14,26.8,9.3,40.5l56.8,56.8c13.7-4.7,29.6-1.7,40.5,9.3c15.3,15.3,15.3,40.2,0,55.5c-15.3,15.3-40.2,15.3-55.5,0
	c-11.5-11.5-14.4-28.5-8.5-42.7l-52.9-52.9l0,139.3c3.8,1.9,7.3,4.4,10.4,7.4c15.3,15.3,15.3,40.2,0,55.5
	c-15.3,15.3-40.2,15.3-55.5,0c-15.3-15.3-15.3-40.2,0-55.5c3.7-3.7,8-6.6,12.8-8.6V188.4c-4.8-2-9.2-4.9-12.8-8.6
	c-11.6-11.6-14.4-28.6-8.5-42.9l-58-58.1L9.7,232.2c-12.9,12.9-12.9,33.8,0,46.6l223.5,223.5c12.9,12.9,33.7,12.9,46.6,0
	l222.5-222.5C515.2,267,515.2,246.1,502.3,233.2"/>
</svg>
