<?xml version="1.0" encoding="utf-8"?>
<!-- Generator: Adobe Illustrator 25.2.1, SVG Export Plug-In . SVG Version: 6.00 Build 0)  -->
<svg version="1.1" id="Layer_1" xmlns="http://www.w3.org/2000/svg" xmlns:xlink="http://www.w3.org/1999/xlink" x="0px" y="0px"
	 viewBox="0 0 240 240" style="enable-background:new 0 0 240 240;" xml:space="preserve">
<style type="text/css">
	.st0{fill:#330000;}
	.st1{fill:#FF9A00;}
</style>
<g id="vlpa">
	<g id="vlpb">
		<g id="vlpc">
			<g id="vlpd">
				<path class="st0" d="M42.5,0h155C221,0,240,19.5,240,43.6v152.8c0,24.1-19,43.6-42.5,43.6h-155C19,240,0,220.5,0,196.4V43.6
					C0,19.5,19,0,42.5,0z"/>
			</g>
		</g>
	</g>
	<g id="vlpe">
		<g id="vlpf">
			<path class="st1" d="M116,143.6H78.8l-7.6,24.1c-0.2,0.9-1,1.5-1.9,1.4H50.5c-1.1,0-1.4-0.6-1.1-1.8l32.2-95.1
				c0.3-1,0.6-2.2,1-3.4c0.4-2.2,0.6-4.4,0.6-6.7c-0.1-0.5,0.3-1,0.8-1.1h0.3h25.6c0.8,0,1.2,0.3,1.3,0.8l36.5,105.6
				c0.3,1.1,0,1.6-1,1.6h-20.9c-0.7,0.1-1.4-0.4-1.6-1.1L116,143.6L116,143.6z M84.6,122.8H110c-0.6-2.2-1.4-4.7-2.3-7.4
				c-0.9-2.8-1.8-5.7-2.7-8.8c-1-3.2-1.9-6.3-2.9-9.4c-1-3.2-1.9-6.2-2.7-9.1c-0.8-2.9-1.5-5.5-2.2-8H97c-0.9,4.4-2,8.8-3.4,13.2
				c-1.5,4.9-3,10.1-4.6,15.2C87.6,113.6,86.1,118.5,84.6,122.8z"/>
			<path class="st1" d="M170,79c-3.3,0.1-6.5-1.2-8.9-3.6c-2.3-2.6-3.5-5.9-3.4-9.4c-0.1-3.5,1.2-6.8,3.6-9.1s5.6-3.6,8.9-3.6
				c3.9,0,6.9,1.2,9.1,3.6c2.2,2.5,3.4,5.7,3.3,9.1c0.1,3.5-1.1,6.9-3.5,9.4C176.8,77.8,173.4,79.2,170,79L170,79z M158.8,168V89
				c0-1,0.4-1.4,1.3-1.4h19.8c0.9,0,1.3,0.5,1.3,1.4v79c0,1.1-0.4,1.6-1.3,1.6h-19.6C159.3,169.6,158.8,169,158.8,168z"/>
		</g>
	</g>
</g>
</svg>
