<?xml version="1.0" encoding="utf-8"?>
<!-- Generator: Adobe Illustrator 25.2.1, SVG Export Plug-In . SVG Version: 6.00 Build 0)  -->
<svg version="1.1" id="Layer_1" xmlns="http://www.w3.org/2000/svg" xmlns:xlink="http://www.w3.org/1999/xlink" x="0px" y="0px"
	 viewBox="0 0 512 512" style="enable-background:new 0 0 512 512;" xml:space="preserve">
<style type="text/css">
	.st0{fill:#4596FB;}
</style>
<path class="st0" d="M320.9,2.8h-130C85.6,2.8,0,87.5,0,191.7v128.6c0,104.2,85.6,188.9,191,188.9h130c105.3,0,191-84.7,191-188.9
	V191.7C511.8,87.5,426.2,2.8,320.9,2.8L320.9,2.8z M168.7,417.6H92.5V202.1h76.2V417.6z M130.6,169.8c-20.7,0-38.1-17.3-38.1-37.7
	s17.5-37.7,38.1-37.7s38.1,17.3,38.1,37.7S151.4,169.8,130.6,169.8L130.6,169.8z M418.2,299.1v118.6h-65.3V313.1
	c0-24.8-2.2-57.1-37-57.1s-40.3,27-40.3,55v106.6h-63.2V202.1h59.9v29.1h1.1c8.7-17.3,31.6-29.1,64.3-29.1c68.6,0,81.7,38.8,81.7,97
	H418.2z"/>
</svg>
