<?xml version="1.0" encoding="utf-8"?>
<!-- Generator: Adobe Illustrator 25.2.1, SVG Export Plug-In . SVG Version: 6.00 Build 0)  -->
<svg version="1.1" id="Layer_1" xmlns="http://www.w3.org/2000/svg" xmlns:xlink="http://www.w3.org/1999/xlink" x="0px" y="0px"
	 viewBox="0 0 240 240" style="enable-background:new 0 0 240 240;" xml:space="preserve">
<style type="text/css">
	.st0{fill:#001E36;}
	.st1{fill:#31A8FF;}
</style>
<g id="Layer_2_1_">
	<g id="Surfaces">
		<g id="Photo_Surface">
			<g id="Outline_no_shadow">
				<path class="st0" d="M42.5,0h155C221,0,240,19.5,240,43.6v152.8c0,24.1-19,43.6-42.5,43.6h-155C19,240,0,220.5,0,196.4V43.6
					C0,19.5,19,0,42.5,0z"/>
			</g>
		</g>
	</g>
	<g id="Outlined_Mnemonics_Logos">
		<g id="Ps">
			<path class="st1" d="M54,168.3V62.8c0-0.7,0.3-1.1,1-1.1c1.7,0,3.3,0,5.6-0.1c2.4-0.1,4.9-0.1,7.6-0.2c2.7-0.1,5.6-0.1,8.7-0.2
				C80,61,83,61,86,61c8.2,0,15,1,20.6,3.2c5,1.7,9.6,4.6,13.4,8.4c3.2,3.3,5.7,7.3,7.3,11.7c1.5,4.3,2.3,8.7,2.3,13.3
				c0,8.8-2,16.1-6,21.8c-4,5.7-9.6,10.1-16.1,12.5c-6.8,2.6-14.3,3.5-22.5,3.5c-2.4,0-4,0-5-0.1s-2.4-0.1-4.3-0.1v32.9
				c0.1,0.7-0.4,1.3-1.1,1.4c-0.1,0-0.2,0-0.4,0h-19C54.4,169.6,54,169.2,54,168.3z M75.8,81.4v34.5c1.4,0.1,2.7,0.2,3.9,0.2H85
				c3.9,0,7.8-0.6,11.5-1.8c3.2-0.9,6-2.9,8.2-5.4c2.1-2.6,3.1-6.1,3.1-10.6c0.1-3.2-0.7-6.4-2.3-9.1c-1.7-2.7-4.1-4.7-7-5.8
				c-3.7-1.5-7.7-2.2-11.8-2.1c-2.6,0-4.9,0-6.8,0.1C77.9,81.2,76.5,81.3,75.8,81.4L75.8,81.4z"/>
			<path class="st1" d="M192,109.6c-3-1.6-6.2-2.8-9.6-3.5c-3.7-0.8-7.4-1.3-11.2-1.3c-2-0.1-4.1,0.2-6,0.7c-1.3,0.3-2.4,1-3.1,2.1
				c-0.5,0.8-0.8,1.8-0.8,2.8c0,0.9,0.4,1.8,1,2.7c0.9,1.1,2.1,2.1,3.4,2.8c2.3,1.2,4.7,2.4,7.1,3.4c5.4,1.8,10.6,4.4,15.4,7.5
				c3.3,2.2,6,5,7.9,8.5c1.6,3.3,2.4,6.9,2.3,10.6c0.1,4.8-1.3,9.6-3.9,13.6c-2.8,4.1-6.7,7.3-11.2,9.1c-4.9,2.2-10.9,3.3-18.1,3.3
				c-4.6,0-9.1-0.4-13.6-1.3c-3.5-0.6-7-1.7-10.2-3.3c-0.7-0.4-1.2-1.1-1.1-1.9v-17.8c0-0.3,0.1-0.7,0.4-0.9
				c0.3-0.2,0.6-0.1,0.9,0.1c3.9,2.4,8,4,12.4,5c3.8,1,7.8,1.5,11.8,1.5c3.8,0,6.5-0.5,8.3-1.4c1.6-0.7,2.7-2.5,2.7-4.3
				c0-1.4-0.8-2.8-2.4-4.1c-1.6-1.3-4.9-2.9-9.8-4.8c-5.1-1.8-9.8-4.3-14.2-7.4c-3.1-2.3-5.7-5.2-7.6-8.7c-1.6-3.3-2.4-6.9-2.3-10.5
				c0-4.4,1.2-8.6,3.4-12.4c2.5-4.1,6.2-7.4,10.5-9.4c4.7-2.5,10.6-3.6,17.7-3.6c4.1,0,8.3,0.3,12.4,0.9c3,0.4,5.9,1.2,8.6,2.4
				c0.4,0.1,0.8,0.5,1,0.9c0.1,0.4,0.2,0.8,0.2,1.2v16.7c0,0.4-0.2,0.8-0.5,1C192.9,109.8,192.4,109.8,192,109.6z"/>
		</g>
	</g>
</g>
</svg>
