<?xml version="1.0" encoding="utf-8"?>
<!-- Generator: Adobe Illustrator 25.2.1, SVG Export Plug-In . SVG Version: 6.00 Build 0)  -->
<svg version="1.1" id="Layer_1" xmlns="http://www.w3.org/2000/svg" xmlns:xlink="http://www.w3.org/1999/xlink" x="0px" y="0px"
	 viewBox="0 0 23 23" style="enable-background:new 0 0 23 23;" xml:space="preserve">
<style type="text/css">
	.st0{fill:#61DAFB;}
</style>
<path class="st0" d="M18.9,7.9L18.9,7.9c-0.2-0.1-0.5-0.2-0.7-0.2c0-0.2,0.1-0.3,0.1-0.5c0.6-2.7,0.2-4.9-1.1-5.6
	c-1.2-0.7-3.2,0-5.1,1.8c-0.2,0.2-0.4,0.3-0.6,0.5c-0.1-0.1-0.3-0.2-0.4-0.4C9.1,1.6,7,0.8,5.7,1.6c-1.2,0.7-1.6,2.8-1,5.3
	c0.1,0.3,0.1,0.5,0.2,0.8C4.5,7.7,4.3,7.8,4,7.9c-2.4,0.8-4,2.2-4,3.6c0,1.4,1.7,2.9,4.2,3.7c0.2,0.1,0.4,0.1,0.6,0.2
	c-0.1,0.3-0.1,0.5-0.2,0.8c-0.5,2.5-0.1,4.5,1.1,5.2c1.2,0.7,3.3,0,5.3-1.8c0.2-0.1,0.3-0.3,0.5-0.4c0.2,0.2,0.4,0.4,0.6,0.6
	c2,1.7,3.9,2.4,5.1,1.7c1.2-0.7,1.6-2.9,1.1-5.5c0-0.2-0.1-0.4-0.1-0.6c0.1,0,0.3-0.1,0.4-0.1c2.6-0.9,4.4-2.3,4.4-3.7
	C23,10.1,21.4,8.8,18.9,7.9z M12.7,4c1.7-1.5,3.3-2.1,4-1.6l0,0c0.8,0.4,1.1,2.2,0.6,4.6c0,0.2-0.1,0.3-0.1,0.5
	c-1-0.2-2-0.4-3.1-0.5c-0.6-0.9-1.2-1.7-1.9-2.4C12.4,4.3,12.5,4.2,12.7,4z M6.8,12.7c0.2,0.4,0.4,0.8,0.7,1.2
	c0.2,0.4,0.5,0.8,0.7,1.2C7.5,15,6.7,14.8,6,14.7C6.2,14,6.5,13.4,6.8,12.7z M6.8,10.3C6.5,9.7,6.3,9,6.1,8.4C6.7,8.2,7.4,8.1,8.1,8
	C7.9,8.4,7.7,8.8,7.4,9.2C7.2,9.6,7,9.9,6.8,10.3z M7.3,11.5c0.3-0.6,0.6-1.2,1-1.9v0C8.6,9,9,8.5,9.4,7.9c0.7-0.1,1.4-0.1,2.1-0.1
	c0.7,0,1.4,0,2.1,0.1C14,8.5,14.4,9,14.7,9.6c0.4,0.6,0.7,1.2,1,1.8c-0.3,0.6-0.6,1.3-1,1.9h0c-0.3,0.6-0.7,1.2-1.1,1.8
	c-0.7,0-1.4,0.1-2.1,0.1c-0.7,0-1.4,0-2.1-0.1C9,14.6,8.6,14,8.3,13.4C7.9,12.8,7.6,12.1,7.3,11.5z M15.6,13.8
	c0.2-0.4,0.5-0.8,0.7-1.2l0,0c0.3,0.7,0.6,1.3,0.8,2c-0.7,0.2-1.4,0.3-2.1,0.4C15.1,14.6,15.3,14.2,15.6,13.8L15.6,13.8z M16.2,10.3
	c-0.2-0.4-0.4-0.8-0.7-1.2l0,0c-0.2-0.4-0.5-0.8-0.7-1.2c0.7,0.1,1.4,0.2,2.1,0.4C16.7,9,16.5,9.7,16.2,10.3z M11.5,5.2
	c0.5,0.5,0.9,1.1,1.4,1.6c-0.9,0-1.8,0-2.7,0C10.6,6.3,11.1,5.7,11.5,5.2z M6.2,2.4C7,2,8.7,2.6,10.5,4.2c0.1,0.1,0.2,0.2,0.3,0.3
	c-0.7,0.8-1.4,1.6-2,2.4C7.8,7,6.8,7.2,5.8,7.4C5.7,7.2,5.7,6.9,5.6,6.7v0C5.2,4.5,5.5,2.8,6.2,2.4z M5.1,14.5
	c-0.2-0.1-0.4-0.1-0.6-0.2c-1-0.3-1.9-0.8-2.7-1.4C1.4,12.5,1.1,12,1,11.5c0-0.8,1.2-1.9,3.3-2.6c0.3-0.1,0.5-0.2,0.8-0.2
	c0.3,1,0.7,2,1.1,2.9C5.8,12.5,5.4,13.4,5.1,14.5z M10.4,18.9c-0.8,0.7-1.6,1.2-2.6,1.6h0c-0.5,0.2-1.1,0.3-1.6,0.1
	c-0.7-0.4-1-2-0.6-4.2c0-0.3,0.1-0.5,0.2-0.8c1,0.2,2.1,0.4,3.1,0.4c0.6,0.9,1.3,1.7,2,2.4C10.7,18.7,10.6,18.8,10.4,18.9z
	 M11.5,17.8c-0.5-0.5-0.9-1.1-1.4-1.7c0.4,0,0.9,0,1.3,0c0.5,0,0.9,0,1.4,0C12.5,16.7,12,17.3,11.5,17.8L11.5,17.8z M17.5,19.2
	c0,0.6-0.3,1.1-0.8,1.4C16,21,14.5,20.5,12.8,19c-0.2-0.2-0.4-0.3-0.6-0.5c0.7-0.8,1.3-1.6,1.9-2.4c1-0.1,2.1-0.2,3.1-0.5
	c0,0.2,0.1,0.4,0.1,0.6l0,0C17.6,17.1,17.7,18.2,17.5,19.2L17.5,19.2z M18.3,14.3L18.3,14.3c-0.1,0-0.3,0.1-0.4,0.1
	c-0.3-1-0.7-2-1.2-2.9c0.4-0.9,0.8-1.9,1.1-2.9c0.2,0.1,0.5,0.1,0.7,0.2c2.1,0.7,3.4,1.8,3.4,2.7C22,12.4,20.6,13.5,18.3,14.3
	L18.3,14.3z"/>
<path class="st0" d="M11.5,9.4c1.1,0,2.1,0.9,2.1,2.1c0,1.1-0.9,2.1-2.1,2.1c-1.1,0-2.1-0.9-2.1-2.1c0,0,0,0,0,0
	C9.4,10.3,10.4,9.4,11.5,9.4C11.5,9.4,11.5,9.4,11.5,9.4"/>
</svg>
