<?xml version="1.0" encoding="utf-8"?>
<!-- Generator: Adobe Illustrator 25.2.1, SVG Export Plug-In . SVG Version: 6.00 Build 0)  -->
<svg version="1.1" id="Layer_1" xmlns="http://www.w3.org/2000/svg" xmlns:xlink="http://www.w3.org/1999/xlink" x="0px" y="0px"
	 viewBox="0 0 556 556" style="enable-background:new 0 0 556 556;" xml:space="preserve">
<style type="text/css">
	.st0{fill-rule:evenodd;clip-rule:evenodd;fill:#00435B;}
	.st1{fill:#002B3B;}
	.st2{fill-rule:evenodd;clip-rule:evenodd;fill:#FF4154;}
	.st3{fill-rule:evenodd;clip-rule:evenodd;fill:#FFD94C;}
</style>
<g>
	<g>
		<path class="st0" d="M343.1,338.5L332.4,357c-3.2,5.6-9.2,9-15.6,9h-81.7c-6.4,0-12.4-3.4-15.6-9l-10.7-18.5H343.1z M373,286.6
			l-18.8,32.7H197.8L179,286.6H373z M354.9,235.9l18.1,31.5H179l18.1-31.5H354.9z M316.8,188c6.4,0,12.4,3.4,15.6,9l11.4,19.7H208.2
			l11.4-19.7c3.2-5.6,9.2-9,15.6-9H316.8z"/>
		<g transform="translate(193.000000, 289.000000)">
		</g>
		<path class="st1" d="M116.2,179.4c-9.1-43.9-11-77.5-5.1-102c3.5-14.5,9.8-26.4,19.5-35c10.2-9,23.1-13.5,37.6-13.5
			c23.9,0,49.1,10.9,76,31.6c11,8.5,22.3,18.6,34.2,30.6c0.9-1.2,2-2.4,3.2-3.4C315,58,343.1,39.5,367.2,32.4
			c14.3-4.2,27.7-4.6,40-0.5c12.9,4.3,23.2,13.3,30.5,25.9c12,20.8,15.1,48.1,10.7,81.7c-1.8,13.7-4.9,28.7-9.3,44.9
			c1.7,0.2,3.3,0.6,5,1.1c42.4,14.1,72.4,29.2,90.6,46.4c10.8,10.3,17.9,21.7,20.4,34.4c2.7,13.4,0.1,26.8-7.2,39.3
			c-12,20.7-33.9,37.1-65.3,50c-12.6,5.2-26.8,9.9-42.7,14.1c0.7,1.6,1.3,3.4,1.7,5.2c9.1,43.9,11,77.5,5.1,102
			c-3.5,14.5-9.8,26.4-19.5,35c-10.2,9-23.1,13.5-37.6,13.5c-23.9,0-49.1-10.9-76-31.6c-11.1-8.5-22.6-18.9-34.5-31
			c-1.2,1.9-2.7,3.7-4.5,5.3c-33.4,29.8-61.6,48.3-85.6,55.4c-14.3,4.2-27.7,4.6-40,0.5c-12.9-4.3-23.2-13.3-30.5-25.9
			c-12-20.8-15.1-48.1-10.7-81.7c1.9-14.2,5.2-29.8,9.8-46.7c-1.8-0.2-3.6-0.6-5.5-1.2c-42.4-14.1-72.4-29.2-90.6-46.4
			C10.6,311.9,3.6,300.5,1,287.8c-2.7-13.4-0.1-26.8,7.2-39.3c12-20.7,33.9-37.1,65.3-50c13-5.4,27.7-10.2,44.1-14.5
			C117,182.5,116.6,181,116.2,179.4z"/>
		<path class="st2" d="M225.1,165.4c22-1.7,44.6-2.5,68-2.3l0,0c4.4,0,8-3.5,8.1-7.9c0-1.9-0.6-3.7-1.8-5.1
			C246.3,84.7,202.6,52,168.2,52c-35.5,0-45.6,39.1-30.3,117.3l0,0c0.8,4.3,5,7.1,9.2,6.3C174.2,170.8,200.2,167.4,225.1,165.4z"/>
		<path class="st2" d="M348.5,176.2c12.7,18.3,24.9,37.7,36.5,58.1l0,0c2.2,3.8,7.1,5.2,10.9,3c1.6-0.9,2.8-2.4,3.5-4.1
			c30-78.8,36.3-133.1,18.9-163c-18-30.8-57.1-20.2-117.4,32v0c-3.3,2.9-3.7,7.9-0.9,11.2C318,134.6,334.2,155.5,348.5,176.2z"/>
		<path class="st2" d="M401.8,286.2c-9.5,20-20.2,40-32,60.2c-2.2,3.8-1,8.7,2.8,11c1.6,0.9,3.5,1.3,5.4,1
			c82.8-13.6,132.8-35.3,149.9-65.2c17.8-30.8-10.8-59.1-85.7-84.7l0,0c-4.1-1.4-8.6,0.7-10.1,4.8
			C422.7,239.3,412.6,263.6,401.8,286.2z"/>
		<path class="st2" d="M333.9,389.6c-22,1.7-44.6,2.5-68,2.3l0,0c-4.4,0-8,3.5-8.1,7.9c0,1.9,0.6,3.7,1.8,5.1
			c53.1,65.4,96.8,98.1,131.2,98.1c35.5,0,45.6-39.1,30.3-117.3l0,0c-0.8-4.3-5-7.1-9.2-6.3C384.8,384.2,358.8,387.6,333.9,389.6z"
			/>
		<path class="st2" d="M207.5,379.8c-12.7-18.3-24.9-37.7-36.5-58.1l0,0c-2.2-3.8-7.1-5.2-10.9-3c-1.6,0.9-2.8,2.4-3.5,4.1
			c-30,78.8-36.3,133.1-18.9,163c18,30.8,57.1,20.2,117.4-32l0,0c3.3-2.9,3.7-7.9,0.9-11.2C238,421.4,221.8,400.5,207.5,379.8z"/>
		<path class="st2" d="M154.2,266.8c9.5-20,20.2-40,32-60.2c2.2-3.8,1-8.7-2.8-11c-1.6-0.9-3.5-1.3-5.4-1
			c-82.8,13.6-132.8,35.3-149.9,65.2c-17.8,30.8,10.8,59.1,85.7,84.7h0c4.1,1.4,8.6-0.7,10.1-4.8
			C133.3,313.7,143.4,289.4,154.2,266.8z"/>
		<g transform="translate(175.000000, 160.000000)">
			<path class="st3" d="M66.7,29h68.6c10,0,19.3,5.4,24.3,14.1l34.4,60c5,8.6,5,19.2,0,27.9l-34.4,60c-5,8.7-14.3,14.1-24.3,14.1
				H66.7c-10,0-19.3-5.4-24.3-14.1L8,130.9c-5-8.6-5-19.2,0-27.9l34.4-60C47.4,34.4,56.7,29,66.7,29z M124.8,47.1
				c10,0,19.3,5.4,24.3,14.1l24,41.9c4.9,8.6,4.9,19.2,0,27.8l-24,41.9c-5,8.7-14.3,14.1-24.3,14.1H77.2c-10,0-19.3-5.4-24.3-14.1
				l-24-41.9c-4.9-8.6-4.9-19.2,0-27.8l24-41.9c5-8.7,14.3-14.1,24.3-14.1H124.8z M113.6,66.9H88.4c-10,0-19.3,5.4-24.3,14.1l0,0
				l-12.7,22.1c-5,8.6-5,19.3,0,27.9l0,0L64.2,153c5,8.7,14.3,14.1,24.3,14.1l0,0h25.1c10,0,19.3-5.4,24.3-14.1l0,0l12.7-22.1
				c5-8.6,5-19.3,0-27.9l0,0L137.9,81C132.9,72.3,123.6,66.9,113.6,66.9L113.6,66.9z M102.7,85.9c10,0,19.3,5.4,24.3,14l1.8,3.1
				c5,8.6,5,19.3,0,27.9l-1.8,3.1c-5,8.7-14.3,14-24.3,14h-3.4c-10,0-19.3-5.4-24.3-14l-1.8-3.1c-5-8.6-5-19.3,0-27.9l1.8-3.1
				c5-8.7,14.3-14,24.3-14H102.7z M101,104.5c-4.5,0-8.6,2.4-10.8,6.2c-2.2,3.9-2.2,8.6,0,12.5c2.2,3.9,6.3,6.2,10.8,6.2l0,0
				c4.5,0,8.6-2.4,10.8-6.2c2.2-3.9,2.2-8.6,0-12.5C109.6,106.9,105.5,104.5,101,104.5L101,104.5z M0,117h22.4"/>
		</g>
	</g>
</g>
</svg>
