<?xml version="1.0" encoding="utf-8"?>
<!-- Generator: Adobe Illustrator 25.2.1, SVG Export Plug-In . SVG Version: 6.00 Build 0)  -->
<svg version="1.1" id="Layer_1" xmlns="http://www.w3.org/2000/svg" xmlns:xlink="http://www.w3.org/1999/xlink" x="0px" y="0px"
	 viewBox="0 0 100 100" style="enable-background:new 0 0 100 100;" xml:space="preserve">
<style type="text/css">
	.st0{fill:#764ABC;}
</style>
<g>
	<path class="st0" d="M69.3,68.8c3.7-0.4,6.5-3.6,6.4-7.4s-3.3-6.9-7.1-6.9h-0.3c-3.9,0.1-7,3.4-6.9,7.4c0.1,1.9,0.9,3.6,2,4.7
		c-4.3,8.5-10.9,14.8-20.9,20c-6.7,3.6-13.7,4.8-20.7,3.9c-5.7-0.8-10.2-3.3-13-7.5c-4.1-6.2-4.5-13-1-19.7
		c2.4-4.8,6.2-8.4,8.7-10.2c-0.5-1.7-1.3-4.5-1.7-6.5C-3.6,60.1-1.7,78.1,3.9,86.6C8.1,93,16.6,97,26,97c2.5,0,5.1-0.3,7.6-0.9
		C49.9,92.9,62.3,83.2,69.3,68.8z"/>
	<path class="st0" d="M91.7,53.1C82,41.7,67.8,35.5,51.5,35.5h-2c-1.1-2.3-3.6-3.8-6.2-3.8h-0.3c-3.9,0.1-7,3.4-6.9,7.4
		c0.1,3.8,3.3,6.9,7.1,6.9h0.3c2.8-0.1,5.2-1.9,6.2-4.3H52c9.7,0,18.8,2.8,27.1,8.3c6.4,4.2,10.9,9.7,13.5,16.3
		c2.2,5.3,2,10.6-0.3,15c-3.6,6.7-9.5,10.4-17.4,10.4c-5.1,0-9.9-1.5-12.5-2.7c-1.4,1.3-3.9,3.3-5.7,4.6c5.5,2.5,11.1,3.9,16.4,3.9
		c12.2,0,21.3-6.7,24.7-13.5C101.5,76.6,101.2,63.9,91.7,53.1z"/>
	<path class="st0" d="M27,71c0.1,3.8,3.3,6.9,7.1,6.9h0.3c3.9-0.1,7-3.4,6.9-7.4c-0.1-3.8-3.3-6.9-7.1-6.9h-0.3
		c-0.3,0-0.6,0-0.9,0.1c-5.2-8.7-7.4-18.1-6.6-28.3c0.5-7.6,3.1-14.3,7.5-19.7c3.7-4.7,10.8-7,15.7-7.1
		c13.5-0.3,19.2,16.5,19.6,23.3c1.7,0.4,4.5,1.3,6.4,1.9C74,13.2,61.3,2.5,49.1,2.5c-11.5,0-22,8.3-26.2,20.5
		c-5.9,16.3-2,31.9,5.1,44.3C27.3,68.2,26.9,69.6,27,71z"/>
</g>
</svg>
