<?xml version="1.0" encoding="utf-8"?>
<!-- Generator: Adobe Illustrator 25.2.1, SVG Export Plug-In . SVG Version: 6.00 Build 0)  -->
<svg version="1.1" id="Layer_1" xmlns="http://www.w3.org/2000/svg" xmlns:xlink="http://www.w3.org/1999/xlink" x="0px" y="0px"
	 viewBox="0 0 200 200" style="enable-background:new 0 0 200 200;" xml:space="preserve">
<style type="text/css">
	.st0{fill:#F06292;}
</style>
<path class="st0" d="M196.3,157c4.5,7.8,5,16.1,1.2,22.7c-3.8,6.6-11.1,10.2-20.1,10.2h-17.1c0.2-3.2,0.3-6.4,0.3-9.6
	c0-3.6-0.2-7.2-0.4-10.7h11.2c2.7,0,5-2.2,5-5c0-0.8-0.2-1.7-0.6-2.4L104.4,37.9c-0.9-1.6-2.6-2.6-4.3-2.6c-1.8,0-3.4,0.9-4.2,2.4
	L84.4,57.4c34.5,26,57.6,66.3,60.8,112c0.2,3.5,0.4,7.1,0.4,10.7c0,3.2-0.2,6.4-0.3,9.6H89.7c0.3-3.2,0.5-6.4,0.5-9.6
	c0-3.6-0.2-7.2-0.6-10.7c-2.7-25.1-15.1-47.5-33.2-63.2l-7.8,13.6c13.7,12.7,23.1,30.1,25.6,49.6c0.5,3.5,0.7,7.1,0.7,10.7
	c0,3.3-0.2,6.5-0.6,9.6H22.6c-9,0-16.4-3.8-20.1-10.2c-3.8-6.5-3.3-14.8,1.2-22.7l10.6-18.2c6.1,3.3,11.5,7.5,16.2,12.6L24.1,162
	c-0.4,0.7-0.6,1.5-0.6,2.4c0,2.7,2.2,5,5,5h25.1c-2-11.7-7.4-22.6-15.5-31.4c-4.6-5-10.2-9.3-16.2-12.6l27.9-48.6
	c5.9,3.3,11.6,7.1,16.8,11.4c24.1,19.5,40.4,48.4,43.3,81.1h15c-3-38.2-22.3-71.9-50.8-94.2c-5.4-4.2-11-8-17-11.3L81,22.4
	c4.5-7.8,11.4-12.3,18.9-12.3c7.5,0,14.4,4.5,18.9,12.3L196.3,157z"/>
</svg>
