<?xml version="1.0" encoding="utf-8"?>
<!-- Generator: Adobe Illustrator 25.2.1, SVG Export Plug-In . SVG Version: 6.00 Build 0)  -->
<svg version="1.1" id="Layer_1" xmlns="http://www.w3.org/2000/svg" xmlns:xlink="http://www.w3.org/1999/xlink" x="0px" y="0px"
	 viewBox="0 0 512 512" style="enable-background:new 0 0 512 512;" xml:space="preserve">
<style type="text/css">
	.st0{fill:#4596FB;}
</style>
<g>
	<path class="st0" d="M324.3,251.7c-8.1-5.2-17-9.2-26.2-11.9c-11.5-3.6-23.1-6.5-35-8.6c-9.8-2.2-17.5-4.3-21.9-5.4
		c-4.5-0.9-8.9-2.4-13.1-4.3c-4.4-1.1-7.7-4.3-9.8-6.5c-2.2-2.3-3.4-5.4-3.3-8.6c0-6.5,3.3-10.8,9.8-15.1c6.6-4.3,16.4-6.5,27.3-6.5
		c12,0,20.8,1.1,26.2,5.4c5.5,4.3,9.8,9.7,14.2,17.2c4.4,5.4,6.6,9.7,9.8,11.9c3.3,3.2,7.7,4.3,13.1,4.3c6.1,0.2,12-2.2,16.4-6.5
		c4.1-3.9,6.5-9.4,6.6-15.1c0.1-6-1.4-12-4.4-17.2c-3.3-5.4-8.7-10.8-15.3-16.2c-8.1-5.6-16.9-9.9-26.2-12.9
		c-9.8-3.2-21.9-4.3-36.1-4.3c-15.6,0-31.1,2.6-45.9,7.5c-13.1,4.3-24,11.9-30.6,20.5c-14.2,17.9-14.6,43-1.1,61.4
		c6.6,8.6,16.4,15.1,27.3,19.4c13.5,5,27.4,9,41.5,11.9c9.6,1.6,19.1,3.7,28.4,6.5c6.6,2.2,12,4.3,16.4,8.6c4.4,3.2,6.6,7.5,6.6,14
		c0,7.5-4.4,14-12,19.4c-7.7,5.4-18.6,7.5-31.7,7.5c-7.9,0-15.6-1.4-23-4.3c-5.2-2-9.7-5.3-13.1-9.7c-3.3-3.2-5.5-8.6-8.7-15.1
		c-2-4.9-5-9.3-8.7-12.9c-4.1-3-9.1-4.5-14.2-4.3c-6.6,0-12,1.1-16.4,5.4c-4.3,3.4-6.7,8.6-6.6,14c0,8.6,3.3,17.2,9.8,26.9
		c6.6,9.7,15.6,17.5,26.2,22.6c14.2,7.5,32.8,11.9,55.7,11.9c16.8,0.1,33.5-2.8,49.2-8.6c12.6-4.8,23.6-13,31.7-23.7
		c7.7-9.7,10.9-21.6,10.9-33.4c0-10.8-2.2-19.4-6.6-26.9C337.4,262.5,332,256,324.3,251.7L324.3,251.7z"/>
	<path class="st0" d="M321,2.7H191C85.6,2.7,0,87.4,0,191.7v128.6c0,104.3,85.6,189,191,189h130c105.4,0,191-84.7,191-189V191.7
		C512,87.4,426.4,2.7,321,2.7L321,2.7z M328.7,417.7c-15.3,0-29.5-4.3-42.6-10.8c-9.4,1.3-18.9,2-28.4,2.2
		c-86.3,0-156.3-67.9-156.3-152c0-10.1,1.1-20.3,3.3-30.2c-7.9-13.4-12.1-28.6-12-44.2c0-48.5,40.4-88.4,90.7-88.4
		c17,0.2,33.7,5,48.1,14c8.7-1.3,17.4-2,26.2-2.2c86.3,0,156.3,67.9,156.3,152c0.2,10.9-1.3,21.8-4.4,32.3
		c6.6,11.9,10,25.2,9.8,38.8C419.4,377.8,379,417.7,328.7,417.7z"/>
</g>
</svg>
