<?xml version="1.0" encoding="utf-8"?>
<!-- Generator: Adobe Illustrator 25.2.1, SVG Export Plug-In . SVG Version: 6.00 Build 0)  -->
<svg version="1.1" id="Layer_1" xmlns="http://www.w3.org/2000/svg" xmlns:xlink="http://www.w3.org/1999/xlink" x="0px" y="0px"
	 viewBox="0 0 512 512" style="enable-background:new 0 0 512 512;" xml:space="preserve">
<style type="text/css">
	.st0{fill:#4596FB;}
</style>
<g>
	<path class="st0" d="M320.3,0H191.7C87.4,0,2.7,85.6,2.7,190.9v130c0,105.4,84.7,191,189,191h128.6c104.3,0,189-85.6,189-191v-130
		C509.3,85.6,424.6,0,320.3,0L320.3,0z M252.9,141.8l109.6,91.3l-18,21.8l-109.8-91.2L252.9,141.8z M211.7,201.4l129.5,60.4
		l-12,25.8l-129.4-60.2L211.7,201.4z M186.3,266.5L325.8,296L320,324l-139.5-29.4L186.3,266.5z M178.5,329.8h141.4v28.8H178.5V329.8
		z M378.1,416H120.4V302.9H149v84.8h200.4v-84.8H378L378.1,416z M368.7,228.1l-85.6-115l23-17.2l85.5,115L368.7,228.1z"/>
</g>
</svg>
