<?xml version="1.0" encoding="utf-8"?>
<!-- Generator: Adobe Illustrator 16.0.3, SVG Export Plug-In . SVG Version: 6.00 Build 0)  -->
<!DOCTYPE svg PUBLIC "-//W3C//DTD SVG 1.1//EN" "http://www.w3.org/Graphics/SVG/1.1/DTD/svg11.dtd">
<svg version="1.1" id="Layer_1" xmlns="http://www.w3.org/2000/svg" xmlns:xlink="http://www.w3.org/1999/xlink" x="0px" y="0px"
	 width="462.309px" height="462.396px" viewBox="0 0 462.309 462.396" enable-background="new 0 0 462.309 462.396"
	 xml:space="preserve">
<path fill-rule="evenodd" clip-rule="evenodd" fill="#0066FF" d="M0.124,231.613c0-32.827-0.357-65.661,0.143-98.481
	c0.271-17.759,0.854-35.551,4.513-53.123c7.767-37.305,37.227-67.045,74.736-74.817c12.58-2.606,25.261-3.728,38.127-4.104
	c70.3-2.057,140.607-0.526,210.909-0.734c16.422-0.049,32.855,1.059,49.207,3.568c41.639,6.392,73.65,39.084,80.592,80.633
	c2.648,15.85,3.555,31.8,3.652,47.709c0.406,66.153,0.396,132.313,0.035,198.467c-0.096,17.258-0.893,34.561-4.445,51.645
	c-7.906,38.006-36.994,67.154-74.938,75.084c-17.406,3.637-35.031,4.58-52.631,4.674c-66.153,0.348-132.312,0.35-198.466,0.01
	c-18.438-0.094-36.942-0.871-55.068-5.199c-39.139-9.348-68.792-43.098-73.522-83.533c-2.462-21.047-2.901-42.16-2.893-63.309
	c0.01-26.163,0.002-52.325,0.002-78.489C0.093,231.613,0.108,231.613,0.124,231.613z"/>
<g>
	<path fill-rule="evenodd" clip-rule="evenodd" fill="#FFFFFF" d="M269.886,290.458c0-6.123-0.044-12.246,0.011-18.369
		c0.058-6.155,4.28-10.976,10-11.551c6.5-0.653,11.644,2.908,12.981,9.213c0.416,1.965,0.366,4.05,0.375,6.08
		c0.034,9.823-0.053,19.646,0.036,29.468c0.114,12.68,9.532,21.985,22.077,21.958c12.504-0.027,21.863-9.417,21.931-22.123
		c0.059-10.715-0.073-21.432,0.014-32.146c0.066-8.054,5.496-13.1,13.143-12.462c5.027,0.419,9.98,4.444,10.037,9.453
		c0.166,14.771,1.664,29.659-0.687,44.299c-3.176,19.79-22.069,37.829-48.271,36.355c-20.067-1.127-39.111-18.407-41.363-39.149
		c-0.752-6.931-0.118-14.014-0.118-21.027C269.996,290.46,269.941,290.458,269.886,290.458z"/>
	<path fill-rule="evenodd" clip-rule="evenodd" fill="#FFFFFF" d="M397.477,305.72c0,10.831,0.025,21.662-0.01,32.494
		c-0.024,7.486-4.776,12.323-12.025,12.351c-7.338,0.03-12.201-4.739-12.215-12.16c-0.035-21.918-0.034-43.835,0-65.752
		c0.012-7.423,4.873-12.189,12.215-12.16c7.251,0.029,12.002,4.865,12.025,12.352C397.502,283.803,397.477,294.762,397.477,305.72z"
		/>
	<path fill-rule="evenodd" clip-rule="evenodd" fill="#FFFFFF" d="M287.316,213.879c-12.472,12.473-79.57,79.609-92.069,92.056
		c-8.64,8.604-17.567,10.813-22.727,5.72c-5.224-5.153-3.171-14.084,5.367-22.64c25.212-25.264,105.096-105.147,130.36-130.361
		c8.557-8.539,17.483-10.591,22.64-5.365c5.095,5.16,2.885,14.088-5.718,22.726C312.573,188.66,299.935,201.259,287.316,213.879z"/>
	<path fill-rule="evenodd" clip-rule="evenodd" fill="#FFFFFF" d="M86.654,139.488c0,5.102-0.039,10.205,0.007,15.307
		c0.129,13.768,9.957,24.042,22.992,24.079c13.039,0.036,22.968-10.131,23.132-23.924c0.123-10.331-0.031-20.663-0.028-30.994
		c0.003-6.374,2.46-10.015,7.793-11.702c5.721-1.809,11.901,1.63,13.411,7.472c0.191,0.74,0.455,1.496,0.457,2.245
		c0.018,14.515,1.623,29.147-1.164,43.496c-3.971,20.458-23.104,35.415-43.858,35.129c-21.258-0.294-39.75-15.565-43.597-36.087
		c-1.3-6.937-0.923-13.975-0.925-20.983c-0.001-6.887-0.142-13.78,0.072-20.661c0.186-6.03,4-10.157,9.698-11.083
		c4.458-0.724,9.521,2.324,11.328,6.753c0.748,1.834,0.718,3.741,0.726,5.648c0.022,5.102,0.008,10.203,0.008,15.305
		C86.688,139.488,86.672,139.488,86.654,139.488z"/>
	<path fill-rule="evenodd" clip-rule="evenodd" fill="#FFFFFF" d="M180.997,113.697c2.129-0.151,4.876,1.862,7.381,4.341
		c6.611,6.547,13.292,13.029,19.75,19.726c2.268,2.351,3.674,2.594,6.097,0.096c6.92-7.134,14.019-14.104,21.255-20.917
		c6.645-6.256,16.455-3.125,18.343,5.728c0.848,3.979-0.798,7.203-3.574,9.961c-6.964,6.918-13.842,13.923-20.92,20.719
		c-2.202,2.114-2.156,3.421,0.02,5.508c6.896,6.62,13.622,13.416,20.371,20.188c5.373,5.392,5.789,11.454,1.203,16.222
		c-4.295,4.465-11.254,4.193-16.307-0.803c-20.756-20.524-41.483-41.078-62.188-61.651c-3.786-3.762-4.841-8.665-2.871-12.917
		C171.467,115.776,174.866,113.896,180.997,113.697z"/>
	<path fill-rule="evenodd" clip-rule="evenodd" fill="#FFFFFF" d="M179.184,198.414c-4.28-0.142-7.696-1.906-9.478-5.878
		c-1.782-3.971-1.734-8.176,1.272-11.479c4.791-5.259,9.995-10.141,14.999-15.208c1.011-1.025,1.852-1.057,2.886-0.012
		c4.12,4.153,8.262,8.287,12.446,12.374c1.184,1.155,1.137,2.043-0.028,3.17c-4.935,4.775-9.781,9.639-14.745,14.383
		C184.529,197.683,182.021,198.574,179.184,198.414z"/>
</g>
</svg>
