<?xml version="1.0" encoding="utf-8"?>
<!-- Generator: Adobe Illustrator 25.2.1, SVG Export Plug-In . SVG Version: 6.00 Build 0)  -->
<svg version="1.1" id="Layer_1" xmlns="http://www.w3.org/2000/svg" xmlns:xlink="http://www.w3.org/1999/xlink" x="0px" y="0px"
	 viewBox="0 0 512 512" style="enable-background:new 0 0 512 512;" xml:space="preserve">
<style type="text/css">
	.st0{fill:#FFFFFF;}
	.st1{fill:#8ED6FB;}
	.st2{fill:#1C78C0;}
</style>
<path class="st0" d="M256,0l226.3,128v256L256,512L29.7,384V128L256,0z"/>
<path class="st1" d="M441.9,375.2L263.5,476.1v-78.6l111.1-61.2L441.9,375.2L441.9,375.2z M454.1,364.1v-211l-65.2,37.7v135.6
	L454.1,364.1L454.1,364.1z M69.4,375.2l178.4,100.9v-78.6l-111.2-61.2L69.4,375.2z M57.2,364.1v-211l65.2,37.7v135.6L57.2,364.1z
	 M64.9,139.4L247.8,36v75.9l-117.2,64.5l-0.9,0.5C129.7,176.9,64.9,139.4,64.9,139.4z M446.4,139.4L263.5,36v75.9l117.2,64.4
	l0.9,0.5L446.4,139.4L446.4,139.4z"/>
<path class="st2" d="M247.8,379.6l-109.7-60.3V199.8l109.7,63.3V379.6z M263.5,379.6l109.7-60.3V199.8l-109.7,63.3V379.6z
	 M145.6,186l110.1-60.5L365.7,186l-110.1,63.6L145.6,186L145.6,186z"/>
</svg>
